<mxfile host="app.diagrams.net" modified="2023-12-09T23:09:50.081Z" agent="Mozilla/5.0 (Windows NT 10.0; Win64; x64) AppleWebKit/537.36 (KHTML, like Gecko) Chrome/121.0.0.0 Safari/537.36" etag="JAYdP3nkD58uTdaD80SQ" version="22.1.7" type="onedrive">
  <diagram id="C5RBs43oDa-KdzZeNtuy" name="Page-1">
    <mxGraphModel grid="1" page="1" gridSize="10" guides="1" tooltips="1" connect="1" arrows="1" fold="1" pageScale="1" pageWidth="827" pageHeight="1169" math="0" shadow="0">
      <root>
        <mxCell id="WIyWlLk6GJQsqaUBKTNV-0" />
        <mxCell id="WIyWlLk6GJQsqaUBKTNV-1" parent="WIyWlLk6GJQsqaUBKTNV-0" />
        <mxCell id="WIyWlLk6GJQsqaUBKTNV-2" value="" style="rounded=0;html=1;jettySize=auto;orthogonalLoop=1;fontSize=11;endArrow=block;endFill=0;endSize=8;strokeWidth=1;shadow=0;labelBackgroundColor=none;edgeStyle=orthogonalEdgeStyle;exitX=0.5;exitY=1;exitDx=0;exitDy=0;entryX=0.5;entryY=0;entryDx=0;entryDy=0;" edge="1" parent="WIyWlLk6GJQsqaUBKTNV-1" source="54UECKMDpVW3oqkNIYQG-5" target="54UECKMDpVW3oqkNIYQG-17">
          <mxGeometry relative="1" as="geometry">
            <mxPoint x="230" y="130" as="sourcePoint" />
          </mxGeometry>
        </mxCell>
        <mxCell id="WIyWlLk6GJQsqaUBKTNV-5" value="Press Start Game" style="edgeStyle=orthogonalEdgeStyle;rounded=0;html=1;jettySize=auto;orthogonalLoop=1;fontSize=11;endArrow=block;endFill=0;strokeWidth=1;shadow=0;labelBackgroundColor=none;strokeColor=default;endSize=8;exitX=1;exitY=0.5;exitDx=0;exitDy=0;" edge="1" parent="WIyWlLk6GJQsqaUBKTNV-1" source="54UECKMDpVW3oqkNIYQG-17" target="WIyWlLk6GJQsqaUBKTNV-7">
          <mxGeometry y="10" relative="1" as="geometry">
            <mxPoint as="offset" />
          </mxGeometry>
        </mxCell>
        <mxCell id="54UECKMDpVW3oqkNIYQG-11" value="" style="edgeStyle=orthogonalEdgeStyle;rounded=0;orthogonalLoop=1;jettySize=auto;html=1;endArrow=block;endFill=0;endSize=8;" edge="1" parent="WIyWlLk6GJQsqaUBKTNV-1" source="WIyWlLk6GJQsqaUBKTNV-7" target="54UECKMDpVW3oqkNIYQG-10">
          <mxGeometry relative="1" as="geometry" />
        </mxCell>
        <mxCell id="54UECKMDpVW3oqkNIYQG-12" value="Play Button" style="edgeLabel;html=1;align=center;verticalAlign=middle;resizable=0;points=[];" vertex="1" connectable="0" parent="54UECKMDpVW3oqkNIYQG-11">
          <mxGeometry x="-0.0092" y="1" relative="1" as="geometry">
            <mxPoint y="-9" as="offset" />
          </mxGeometry>
        </mxCell>
        <mxCell id="54UECKMDpVW3oqkNIYQG-15" style="edgeStyle=orthogonalEdgeStyle;rounded=0;orthogonalLoop=1;jettySize=auto;html=1;endArrow=block;endFill=0;endSize=8;entryX=0.5;entryY=0;entryDx=0;entryDy=0;" edge="1" parent="WIyWlLk6GJQsqaUBKTNV-1">
          <mxGeometry relative="1" as="geometry">
            <mxPoint x="220" y="180" as="targetPoint" />
            <mxPoint x="484.0344827586207" y="190" as="sourcePoint" />
            <Array as="points">
              <mxPoint x="484" y="150" />
              <mxPoint x="220" y="150" />
            </Array>
          </mxGeometry>
        </mxCell>
        <mxCell id="54UECKMDpVW3oqkNIYQG-16" value="Back" style="edgeLabel;html=1;align=center;verticalAlign=middle;resizable=0;points=[];" vertex="1" connectable="0" parent="54UECKMDpVW3oqkNIYQG-15">
          <mxGeometry x="0.1064" y="1" relative="1" as="geometry">
            <mxPoint x="21" y="-11" as="offset" />
          </mxGeometry>
        </mxCell>
        <mxCell id="WIyWlLk6GJQsqaUBKTNV-7" value="Shown options to select difficulty and mode" style="rounded=1;whiteSpace=wrap;html=1;fontSize=12;glass=0;strokeWidth=1;shadow=0;" vertex="1" parent="WIyWlLk6GJQsqaUBKTNV-1">
          <mxGeometry x="414" y="190" width="140" height="40" as="geometry" />
        </mxCell>
        <mxCell id="54UECKMDpVW3oqkNIYQG-5" value="Launch Program" style="ellipse;whiteSpace=wrap;html=1;" vertex="1" parent="WIyWlLk6GJQsqaUBKTNV-1">
          <mxGeometry x="175" y="40" width="90" height="60" as="geometry" />
        </mxCell>
        <mxCell id="54UECKMDpVW3oqkNIYQG-13" style="edgeStyle=orthogonalEdgeStyle;rounded=0;orthogonalLoop=1;jettySize=auto;html=1;endArrow=block;endFill=0;endSize=8;entryX=0.5;entryY=0;entryDx=0;entryDy=0;" edge="1" parent="WIyWlLk6GJQsqaUBKTNV-1" source="54UECKMDpVW3oqkNIYQG-10" target="54UECKMDpVW3oqkNIYQG-17">
          <mxGeometry relative="1" as="geometry">
            <mxPoint x="230" y="140" as="targetPoint" />
            <Array as="points">
              <mxPoint x="704" y="120" />
              <mxPoint x="220" y="120" />
            </Array>
          </mxGeometry>
        </mxCell>
        <mxCell id="54UECKMDpVW3oqkNIYQG-14" value="Game Over" style="edgeLabel;html=1;align=center;verticalAlign=bottom;resizable=0;points=[];horizontal=1;" vertex="1" connectable="0" parent="54UECKMDpVW3oqkNIYQG-13">
          <mxGeometry x="0.1014" y="-1" relative="1" as="geometry">
            <mxPoint x="11" y="1" as="offset" />
          </mxGeometry>
        </mxCell>
        <mxCell id="54UECKMDpVW3oqkNIYQG-10" value="Gameplay" style="whiteSpace=wrap;html=1;rounded=1;glass=0;strokeWidth=1;shadow=0;" vertex="1" parent="WIyWlLk6GJQsqaUBKTNV-1">
          <mxGeometry x="644" y="200" width="120" height="20" as="geometry" />
        </mxCell>
        <mxCell id="54UECKMDpVW3oqkNIYQG-21" value="" style="edgeStyle=orthogonalEdgeStyle;rounded=0;orthogonalLoop=1;jettySize=auto;html=1;endArrow=block;endFill=0;endSize=8;" edge="1" parent="WIyWlLk6GJQsqaUBKTNV-1" source="54UECKMDpVW3oqkNIYQG-17" target="54UECKMDpVW3oqkNIYQG-20">
          <mxGeometry relative="1" as="geometry" />
        </mxCell>
        <mxCell id="54UECKMDpVW3oqkNIYQG-26" value="Press Leaderboard" style="edgeLabel;html=1;align=center;verticalAlign=middle;resizable=0;points=[];" vertex="1" connectable="0" parent="54UECKMDpVW3oqkNIYQG-21">
          <mxGeometry x="0.0701" relative="1" as="geometry">
            <mxPoint x="15" y="-15" as="offset" />
          </mxGeometry>
        </mxCell>
        <mxCell id="54UECKMDpVW3oqkNIYQG-25" value="" style="edgeStyle=orthogonalEdgeStyle;rounded=0;orthogonalLoop=1;jettySize=auto;html=1;endSize=8;endArrow=block;endFill=0;" edge="1" parent="WIyWlLk6GJQsqaUBKTNV-1" source="54UECKMDpVW3oqkNIYQG-17" target="54UECKMDpVW3oqkNIYQG-24">
          <mxGeometry relative="1" as="geometry" />
        </mxCell>
        <mxCell id="fNIwg-l8_ZLch0AtrqjT-0" value="Press Learning&lt;br&gt;Mode" style="edgeLabel;html=1;align=left;verticalAlign=middle;resizable=0;points=[];" connectable="0" vertex="1" parent="54UECKMDpVW3oqkNIYQG-25">
          <mxGeometry x="-0.5159" relative="1" as="geometry">
            <mxPoint y="6" as="offset" />
          </mxGeometry>
        </mxCell>
        <mxCell id="54UECKMDpVW3oqkNIYQG-34" style="edgeStyle=orthogonalEdgeStyle;rounded=0;orthogonalLoop=1;jettySize=auto;html=1;exitX=0.25;exitY=1;exitDx=0;exitDy=0;endSize=8;endArrow=block;endFill=0;entryX=0.5;entryY=0;entryDx=0;entryDy=0;" edge="1" parent="WIyWlLk6GJQsqaUBKTNV-1" source="54UECKMDpVW3oqkNIYQG-17" target="54UECKMDpVW3oqkNIYQG-36">
          <mxGeometry relative="1" as="geometry">
            <mxPoint x="-10" y="300" as="targetPoint" />
            <Array as="points">
              <mxPoint x="170" y="240" />
              <mxPoint x="170" y="270" />
              <mxPoint x="-15" y="270" />
            </Array>
          </mxGeometry>
        </mxCell>
        <mxCell id="54UECKMDpVW3oqkNIYQG-35" value="Exit" style="edgeLabel;html=1;align=center;verticalAlign=middle;resizable=0;points=[];" vertex="1" connectable="0" parent="54UECKMDpVW3oqkNIYQG-34">
          <mxGeometry x="0.0484" relative="1" as="geometry">
            <mxPoint x="9" y="-10" as="offset" />
          </mxGeometry>
        </mxCell>
        <mxCell id="54UECKMDpVW3oqkNIYQG-17" value="Main Menu" style="shape=parallelogram;perimeter=parallelogramPerimeter;whiteSpace=wrap;html=1;fixedSize=1;" vertex="1" parent="WIyWlLk6GJQsqaUBKTNV-1">
          <mxGeometry x="160" y="180" width="120" height="60" as="geometry" />
        </mxCell>
        <mxCell id="54UECKMDpVW3oqkNIYQG-22" style="edgeStyle=orthogonalEdgeStyle;rounded=0;orthogonalLoop=1;jettySize=auto;html=1;exitX=0.5;exitY=0;exitDx=0;exitDy=0;entryX=0.5;entryY=0;entryDx=0;entryDy=0;endArrow=block;endFill=0;endSize=8;" edge="1" parent="WIyWlLk6GJQsqaUBKTNV-1" source="54UECKMDpVW3oqkNIYQG-20" target="54UECKMDpVW3oqkNIYQG-17">
          <mxGeometry relative="1" as="geometry">
            <Array as="points">
              <mxPoint x="-30" y="195" />
              <mxPoint x="-30" y="160" />
              <mxPoint x="220" y="160" />
            </Array>
          </mxGeometry>
        </mxCell>
        <mxCell id="54UECKMDpVW3oqkNIYQG-23" value="Back" style="edgeLabel;html=1;align=center;verticalAlign=middle;resizable=0;points=[];" vertex="1" connectable="0" parent="54UECKMDpVW3oqkNIYQG-22">
          <mxGeometry x="-0.0148" y="2" relative="1" as="geometry">
            <mxPoint x="2" y="-8" as="offset" />
          </mxGeometry>
        </mxCell>
        <mxCell id="54UECKMDpVW3oqkNIYQG-20" value="View leaderboard" style="rounded=1;whiteSpace=wrap;html=1;" vertex="1" parent="WIyWlLk6GJQsqaUBKTNV-1">
          <mxGeometry x="-80" y="195" width="110" height="30" as="geometry" />
        </mxCell>
        <mxCell id="54UECKMDpVW3oqkNIYQG-28" value="" style="edgeStyle=orthogonalEdgeStyle;rounded=0;orthogonalLoop=1;jettySize=auto;html=1;endSize=8;endArrow=block;endFill=0;" edge="1" parent="WIyWlLk6GJQsqaUBKTNV-1" source="54UECKMDpVW3oqkNIYQG-24" target="54UECKMDpVW3oqkNIYQG-27">
          <mxGeometry relative="1" as="geometry" />
        </mxCell>
        <mxCell id="54UECKMDpVW3oqkNIYQG-29" value="Choose learning slide" style="edgeLabel;html=1;align=center;verticalAlign=middle;resizable=0;points=[];" vertex="1" connectable="0" parent="54UECKMDpVW3oqkNIYQG-28">
          <mxGeometry x="-0.3458" y="1" relative="1" as="geometry">
            <mxPoint as="offset" />
          </mxGeometry>
        </mxCell>
        <mxCell id="54UECKMDpVW3oqkNIYQG-30" style="edgeStyle=orthogonalEdgeStyle;rounded=0;orthogonalLoop=1;jettySize=auto;html=1;exitX=1;exitY=0.5;exitDx=0;exitDy=0;endSize=8;endArrow=block;endFill=0;entryX=1;entryY=0.75;entryDx=0;entryDy=0;" edge="1" parent="WIyWlLk6GJQsqaUBKTNV-1" source="54UECKMDpVW3oqkNIYQG-24" target="54UECKMDpVW3oqkNIYQG-17">
          <mxGeometry relative="1" as="geometry">
            <mxPoint x="270" y="220" as="targetPoint" />
            <Array as="points">
              <mxPoint x="310" y="315" />
              <mxPoint x="310" y="221" />
            </Array>
          </mxGeometry>
        </mxCell>
        <mxCell id="54UECKMDpVW3oqkNIYQG-31" value="Back" style="edgeLabel;html=1;align=center;verticalAlign=middle;resizable=0;points=[];" vertex="1" connectable="0" parent="54UECKMDpVW3oqkNIYQG-30">
          <mxGeometry x="-0.0292" y="-1" relative="1" as="geometry">
            <mxPoint x="12" y="36" as="offset" />
          </mxGeometry>
        </mxCell>
        <mxCell id="54UECKMDpVW3oqkNIYQG-24" value="Learning Mode Menu" style="rounded=1;whiteSpace=wrap;html=1;" vertex="1" parent="WIyWlLk6GJQsqaUBKTNV-1">
          <mxGeometry x="160" y="300" width="120" height="30" as="geometry" />
        </mxCell>
        <mxCell id="54UECKMDpVW3oqkNIYQG-32" style="edgeStyle=orthogonalEdgeStyle;rounded=0;orthogonalLoop=1;jettySize=auto;html=1;exitX=0;exitY=0.5;exitDx=0;exitDy=0;entryX=0;entryY=0.5;entryDx=0;entryDy=0;endSize=8;endArrow=block;endFill=0;" edge="1" parent="WIyWlLk6GJQsqaUBKTNV-1" source="54UECKMDpVW3oqkNIYQG-27" target="54UECKMDpVW3oqkNIYQG-24">
          <mxGeometry relative="1" as="geometry" />
        </mxCell>
        <mxCell id="54UECKMDpVW3oqkNIYQG-33" value="Back" style="edgeLabel;html=1;align=center;verticalAlign=middle;resizable=0;points=[];" vertex="1" connectable="0" parent="54UECKMDpVW3oqkNIYQG-32">
          <mxGeometry x="-0.261" y="1" relative="1" as="geometry">
            <mxPoint y="-11" as="offset" />
          </mxGeometry>
        </mxCell>
        <mxCell id="54UECKMDpVW3oqkNIYQG-27" value="Individual Learning Slide" style="rounded=1;whiteSpace=wrap;html=1;" vertex="1" parent="WIyWlLk6GJQsqaUBKTNV-1">
          <mxGeometry x="150" y="400" width="140" height="35" as="geometry" />
        </mxCell>
        <mxCell id="54UECKMDpVW3oqkNIYQG-36" value="Program Closes" style="ellipse;whiteSpace=wrap;html=1;" vertex="1" parent="WIyWlLk6GJQsqaUBKTNV-1">
          <mxGeometry x="-70" y="320" width="110" height="50" as="geometry" />
        </mxCell>
      </root>
    </mxGraphModel>
  </diagram>
</mxfile>
